# xmcd
#
# Track frame offsets:
# 150
# 2589
# 16494
# 42032
# 61199
# 80013
# 99884
# 127393
# 145239
#
# Disc length: 2344 seconds
#
# Revision: 1
# Processed by: cddbd v1.5.2PL0 Copyright (c) Steve Scherf et al.
# Submitted via: Easy CD Ripper v2.38
#
DISCID=6e092609
DTITLE=Deuces Wild - Deuces Wild
DYEAR=2005
DGENRE=Rock
TTITLE0=Intro - Deuces Wild
TTITLE1=Lemmings - Deuces Wild
TTITLE2=Old Folk Song - Deuces Wild
TTITLE3=Apology - Deuces Wild
TTITLE4=Dandelions - Deuces Wild
TTITLE5=Believe - Deuces Wild
TTITLE6=Football Player - Deuces Wild
TTITLE7=Untitled - Deuces Wild
TTITLE8=Wrig Wram - Deuces Wild
EXTD=
EXTT0=Brett Tucker
EXTT1=Brett Tucker
EXTT2=Brett Tucker
EXTT3=Brett Tucker
EXTT4=Brett Tucker
EXTT5=Brett Tucker
EXTT6=Brett Tucker
EXTT7=Brett Tucker
EXTT8=Brett Tucker
PLAYORDER=
